<!-- Generated by IcoMoon.io -->
<svg version="1.1" xmlns="http://www.w3.org/2000/svg" width="1024" height="1024" viewBox="0 0 1024 1024">
<title>menu</title>
<g id="icomoon-ignore">
</g>
<path d="M938.667 768.213c0 23.467-19.029 42.453-42.453 42.453h-341.76c-23.446 0-42.453-19.007-42.453-42.453s19.007-42.453 42.453-42.453h341.76c23.467 0 42.453 18.987 42.453 42.453zM938.667 512c0 23.467-19.029 42.453-42.453 42.453h-768.427c-23.446 0-42.453-19.007-42.453-42.453s19.007-42.453 42.453-42.453h768.427c23.467 0 42.453 19.029 42.453 42.453zM896.213 298.24c23.446 0 42.453-19.007 42.453-42.453s-19.007-42.453-42.453-42.453h-512.427c-23.446 0-42.453 19.007-42.453 42.453s19.007 42.453 42.453 42.453h512.427z"></path>
<symbol id="icon-menu" viewBox="0 0 32 32">
<path d="M29.333 24.007c0 0.733-0.595 1.327-1.327 1.327h-10.68c-0.733 0-1.327-0.594-1.327-1.327s0.594-1.327 1.327-1.327h10.68c0.733 0 1.327 0.593 1.327 1.327zM29.333 16c0 0.733-0.595 1.327-1.327 1.327h-24.013c-0.733 0-1.327-0.594-1.327-1.327s0.594-1.327 1.327-1.327h24.013c0.733 0 1.327 0.595 1.327 1.327zM28.007 9.32c0.733 0 1.327-0.594 1.327-1.327s-0.594-1.327-1.327-1.327h-16.013c-0.733 0-1.327 0.594-1.327 1.327s0.594 1.327 1.327 1.327h16.013z"></path>
</symbol>
</svg>
